<svg xmlns="http://www.w3.org/2000/svg" width="872.709" height="872.714" viewBox="0 0 872.709 872.714">
  <g id="Group_1" data-name="Group 1" transform="translate(-523.268 -127.268)">
    <path id="polyline22" d="M898.438,468.75l-.589-22.488-1.765-22.427-2.937-22.3-4.1-22.119L883.8,357.539l-6.389-21.57-7.509-21.2-8.609-20.784-9.685-20.3-10.734-19.77-11.754-19.181-12.742-18.539L802.68,198.339l-14.61-17.106-15.485-16.318L756.267,149.43l-17.106-14.61-17.847-13.694-18.539-12.742L683.594,96.63,663.824,85.9l-20.3-9.685L622.736,67.6l-21.205-7.509L579.961,53.7l-21.874-5.252-22.119-4.1-22.3-2.937-22.427-1.765-22.488-.589-22.488.589-22.427,1.765-22.3,2.937-22.119,4.1L357.539,53.7l-21.57,6.389-21.2,7.509L293.98,76.211l-20.3,9.685L253.906,96.63l-19.181,11.754-18.539,12.742L198.339,134.82l-17.106,14.61-16.318,15.485L149.43,181.233l-14.61,17.106-13.694,17.847-12.742,18.539L96.63,253.906,85.9,273.676l-9.685,20.3L67.6,314.764l-7.509,21.2L53.7,357.539l-5.252,21.874-4.1,22.119-2.937,22.3-1.765,22.427-.589,22.488.589,22.488,1.765,22.427,2.937,22.3,4.1,22.119L53.7,579.961l6.389,21.57L67.6,622.736l8.609,20.784,9.685,20.3,10.734,19.77,11.754,19.181,12.742,18.539,13.694,17.847,14.61,17.106,15.485,16.318,16.318,15.485,17.106,14.61,17.847,13.694,18.539,12.742,19.181,11.754,19.77,10.734,20.3,9.685,20.784,8.609,21.2,7.509,21.57,6.389,21.874,5.252,22.119,4.1,22.3,2.937,22.427,1.765,22.488.589,22.488-.589,22.427-1.765,22.3-2.937,22.119-4.1,21.874-5.252,21.57-6.389,21.205-7.509,20.784-8.609,20.3-9.685,19.77-10.734,19.181-11.754,18.539-12.742,17.847-13.694,17.106-14.61,16.318-15.485,15.485-16.318,14.61-17.106,13.694-17.847,12.742-18.539,11.754-19.181,10.734-19.77,9.685-20.3,8.609-20.784,7.509-21.205,6.389-21.57,5.252-21.874,4.1-22.119,2.937-22.3,1.765-22.427.588-22.918" transform="translate(490.875 94.875)" fill="none" stroke="#000" stroke-width="13.333"/>
    <path id="polyline27" d="M509.173,84.15l2.246-21.367" transform="translate(490.875 94.875)" fill="none" stroke="#000" stroke-width="10.667"/>
    <path id="polyline32" d="M549.153,90.482l4.467-21.015" transform="translate(490.875 94.875)" fill="none" stroke="#000" stroke-width="10.667"/>
    <path id="polyline37" d="M588.253,100.959l6.639-20.433" transform="translate(490.875 94.875)" fill="none" stroke="#000" stroke-width="10.667"/>
    <path id="polyline42" d="M626.043,115.465l8.738-19.627" transform="translate(490.875 94.875)" fill="none" stroke="#000" stroke-width="10.667"/>
    <path id="polyline47" d="M662.109,133.842l10.743-18.606" transform="translate(490.875 94.875)" fill="none" stroke="#000" stroke-width="10.667"/>
    <path id="polyline52" d="M696.058,155.888l12.628-17.381" transform="translate(490.875 94.875)" fill="none" stroke="#000" stroke-width="10.667"/>
    <path id="polyline57" d="M727.515,181.362,741.891,165.4" transform="translate(490.875 94.875)" fill="none" stroke="#000" stroke-width="10.667"/>
    <path id="polyline62" d="M756.138,209.985,772.1,195.609" transform="translate(490.875 94.875)" fill="none" stroke="#000" stroke-width="10.667"/>
    <path id="polyline67" d="M781.612,241.442l17.381-12.628" transform="translate(490.875 94.875)" fill="none" stroke="#000" stroke-width="10.667"/>
    <path id="polyline72" d="M803.658,275.391l18.606-10.743" transform="translate(490.875 94.875)" fill="none" stroke="#000" stroke-width="10.667"/>
    <path id="polyline77" d="M822.035,311.457l19.627-8.738" transform="translate(490.875 94.875)" fill="none" stroke="#000" stroke-width="10.667"/>
    <path id="polyline82" d="M836.541,349.247l20.433-6.639" transform="translate(490.875 94.875)" fill="none" stroke="#000" stroke-width="10.667"/>
    <path id="polyline87" d="M847.018,388.347l21.015-4.467" transform="translate(490.875 94.875)" fill="none" stroke="#000" stroke-width="10.667"/>
    <path id="polyline92" d="M853.35,428.327l21.367-2.246" transform="translate(490.875 94.875)" fill="none" stroke="#000" stroke-width="10.667"/>
    <path id="polyline97" d="M855.469,468.75h21.484" transform="translate(490.875 94.875)" fill="none" stroke="#000" stroke-width="10.667"/>
    <path id="polyline102" d="M853.35,509.173l21.367,2.246" transform="translate(490.875 94.875)" fill="none" stroke="#000" stroke-width="10.667"/>
    <path id="polyline107" d="M847.018,549.153l21.015,4.467" transform="translate(490.875 94.875)" fill="none" stroke="#000" stroke-width="10.667"/>
    <path id="polyline112" d="M836.541,588.253l20.433,6.639" transform="translate(490.875 94.875)" fill="none" stroke="#000" stroke-width="10.667"/>
    <path id="polyline117" d="M822.035,626.043l19.627,8.738" transform="translate(490.875 94.875)" fill="none" stroke="#000" stroke-width="10.667"/>
    <path id="polyline122" d="M803.658,662.109l18.606,10.743" transform="translate(490.875 94.875)" fill="none" stroke="#000" stroke-width="10.667"/>
    <path id="polyline127" d="M781.612,696.058l17.381,12.628" transform="translate(490.875 94.875)" fill="none" stroke="#000" stroke-width="10.667"/>
    <path id="polyline132" d="M756.138,727.515,772.1,741.891" transform="translate(490.875 94.875)" fill="none" stroke="#000" stroke-width="10.667"/>
    <path id="polyline137" d="M727.515,756.138,741.891,772.1" transform="translate(490.875 94.875)" fill="none" stroke="#000" stroke-width="10.667"/>
    <path id="polyline142" d="M696.058,781.612l12.628,17.381" transform="translate(490.875 94.875)" fill="none" stroke="#000" stroke-width="10.667"/>
    <path id="polyline147" d="M662.109,803.658l10.743,18.606" transform="translate(490.875 94.875)" fill="none" stroke="#000" stroke-width="10.667"/>
    <path id="polyline152" d="M626.043,822.035l8.738,19.627" transform="translate(490.875 94.875)" fill="none" stroke="#000" stroke-width="10.667"/>
    <path id="polyline157" d="M588.253,836.541l6.639,20.433" transform="translate(490.875 94.875)" fill="none" stroke="#000" stroke-width="10.667"/>
    <path id="polyline162" d="M549.153,847.018l4.467,21.015" transform="translate(490.875 94.875)" fill="none" stroke="#000" stroke-width="10.667"/>
    <path id="polyline167" d="M509.173,853.35l2.246,21.367" transform="translate(490.875 94.875)" fill="none" stroke="#000" stroke-width="10.667"/>
    <path id="polyline172" d="M468.75,855.469v21.484" transform="translate(490.875 94.875)" fill="none" stroke="#000" stroke-width="10.667"/>
    <path id="polyline177" d="M428.327,853.35l-2.246,21.367" transform="translate(490.875 94.875)" fill="none" stroke="#000" stroke-width="10.667"/>
    <path id="polyline182" d="M388.347,847.018l-4.467,21.015" transform="translate(490.875 94.875)" fill="none" stroke="#000" stroke-width="10.667"/>
    <path id="polyline187" d="M349.247,836.541l-6.639,20.433" transform="translate(490.875 94.875)" fill="none" stroke="#000" stroke-width="10.667"/>
    <path id="polyline192" d="M311.457,822.035l-8.738,19.627" transform="translate(490.875 94.875)" fill="none" stroke="#000" stroke-width="10.667"/>
    <path id="polyline197" d="M275.391,803.658l-10.743,18.606" transform="translate(490.875 94.875)" fill="none" stroke="#000" stroke-width="10.667"/>
    <path id="polyline202" d="M241.442,781.612l-12.628,17.381" transform="translate(490.875 94.875)" fill="none" stroke="#000" stroke-width="10.667"/>
    <path id="polyline207" d="M209.985,756.138,195.609,772.1" transform="translate(490.875 94.875)" fill="none" stroke="#000" stroke-width="10.667"/>
    <path id="polyline212" d="M181.362,727.515,165.4,741.891" transform="translate(490.875 94.875)" fill="none" stroke="#000" stroke-width="10.667"/>
    <path id="polyline217" d="M155.888,696.058l-17.381,12.628" transform="translate(490.875 94.875)" fill="none" stroke="#000" stroke-width="10.667"/>
    <path id="polyline222" d="M133.842,662.109l-18.606,10.743" transform="translate(490.875 94.875)" fill="none" stroke="#000" stroke-width="10.667"/>
    <path id="polyline227" d="M115.465,626.043l-19.627,8.738" transform="translate(490.875 94.875)" fill="none" stroke="#000" stroke-width="10.667"/>
    <path id="polyline232" d="M100.959,588.253l-20.433,6.639" transform="translate(490.875 94.875)" fill="none" stroke="#000" stroke-width="10.667"/>
    <path id="polyline237" d="M90.482,549.153,69.467,553.62" transform="translate(490.875 94.875)" fill="none" stroke="#000" stroke-width="10.667"/>
    <path id="polyline242" d="M84.15,509.173l-21.367,2.246" transform="translate(490.875 94.875)" fill="none" stroke="#000" stroke-width="10.667"/>
    <path id="polyline247" d="M82.031,468.75H60.547" transform="translate(490.875 94.875)" fill="none" stroke="#000" stroke-width="10.667"/>
    <path id="polyline252" d="M84.15,428.327l-21.367-2.246" transform="translate(490.875 94.875)" fill="none" stroke="#000" stroke-width="10.667"/>
    <path id="polyline257" d="M90.482,388.347,69.467,383.88" transform="translate(490.875 94.875)" fill="none" stroke="#000" stroke-width="10.667"/>
    <path id="polyline262" d="M100.959,349.247l-20.433-6.639" transform="translate(490.875 94.875)" fill="none" stroke="#000" stroke-width="10.667"/>
    <path id="polyline267" d="M115.465,311.457l-19.627-8.738" transform="translate(490.875 94.875)" fill="none" stroke="#000" stroke-width="10.667"/>
    <path id="polyline272" d="M133.842,275.391l-18.606-10.743" transform="translate(490.875 94.875)" fill="none" stroke="#000" stroke-width="10.667"/>
    <path id="polyline277" d="M155.888,241.442l-17.381-12.628" transform="translate(490.875 94.875)" fill="none" stroke="#000" stroke-width="10.667"/>
    <path id="polyline282" d="M181.362,209.985,165.4,195.609" transform="translate(490.875 94.875)" fill="none" stroke="#000" stroke-width="10.667"/>
    <path id="polyline287" d="M209.985,181.362,195.609,165.4" transform="translate(490.875 94.875)" fill="none" stroke="#000" stroke-width="10.667"/>
    <path id="polyline292" d="M241.442,155.888l-12.628-17.381" transform="translate(490.875 94.875)" fill="none" stroke="#000" stroke-width="10.667"/>
    <path id="polyline297" d="M275.391,133.842l-10.743-18.606" transform="translate(490.875 94.875)" fill="none" stroke="#000" stroke-width="10.667"/>
    <path id="polyline302" d="M311.457,115.465l-8.738-19.627" transform="translate(490.875 94.875)" fill="none" stroke="#000" stroke-width="10.667"/>
    <path id="polyline307" d="M349.247,100.959l-6.639-20.433" transform="translate(490.875 94.875)" fill="none" stroke="#000" stroke-width="10.667"/>
    <path id="polyline312" d="M388.347,90.482,383.88,69.467" transform="translate(490.875 94.875)" fill="none" stroke="#000" stroke-width="10.667"/>
    <path id="polyline317" d="M428.327,84.15l-2.246-21.367" transform="translate(490.875 94.875)" fill="none" stroke="#000" stroke-width="10.667"/>
    <path id="polyline322" d="M468.75,82.031V60.547" transform="translate(490.875 94.875)" fill="none" stroke="#000" stroke-width="10.667"/>
    <path id="polyline327" d="M629.883,189.66l42.969-74.424" transform="translate(490.875 94.875)" fill="none" stroke="#000" stroke-width="16"/>
    <path id="polyline332" d="M747.84,307.617l74.424-42.969" transform="translate(490.875 94.875)" fill="none" stroke="#000" stroke-width="16"/>
    <path id="polyline337" d="M791.016,468.75h85.937" transform="translate(490.875 94.875)" fill="none" stroke="#000" stroke-width="16"/>
    <path id="polyline342" d="M747.84,629.883l74.424,42.969" transform="translate(490.875 94.875)" fill="none" stroke="#000" stroke-width="16"/>
    <path id="polyline347" d="M629.883,747.84l42.969,74.424" transform="translate(490.875 94.875)" fill="none" stroke="#000" stroke-width="16"/>
    <path id="polyline352" d="M468.75,791.016v85.937" transform="translate(490.875 94.875)" fill="none" stroke="#000" stroke-width="16"/>
    <path id="polyline357" d="M307.617,747.84l-42.969,74.424" transform="translate(490.875 94.875)" fill="none" stroke="#000" stroke-width="16"/>
    <path id="polyline362" d="M189.66,629.883l-74.424,42.969" transform="translate(490.875 94.875)" fill="none" stroke="#000" stroke-width="16"/>
    <path id="polyline367" d="M146.484,468.75H60.547" transform="translate(490.875 94.875)" fill="none" stroke="#000" stroke-width="16"/>
    <path id="polyline372" d="M189.66,307.617l-74.424-42.969" transform="translate(490.875 94.875)" fill="none" stroke="#000" stroke-width="16"/>
    <path id="polyline377" d="M307.617,189.66l-42.969-74.424" transform="translate(490.875 94.875)" fill="none" stroke="#000" stroke-width="16"/>
    <path id="polyline382" d="M468.75,146.484V60.547" transform="translate(490.875 94.875)" fill="none" stroke="#000" stroke-width="16"/>
  </g>
</svg>
